<?xml version="1.0" standalone="no"?>
<!DOCTYPE svg PUBLIC "-//W3C//DTD SVG 20010904//EN"
 "http://www.w3.org/TR/2001/REC-SVG-20010904/DTD/svg10.dtd">
<svg version="1.0" xmlns="http://www.w3.org/2000/svg"
 width="591.000000pt" height="395.000000pt" viewBox="0 0 591.000000 395.000000"
 preserveAspectRatio="xMidYMid meet">

<g transform="translate(0.000000,395.000000) scale(0.100000,-0.100000)"
fill="#000000" stroke="none">
<path d="M3482 2855 c-45 -37 -80 -70 -77 -75 3 -4 -3 -14 -13 -21 -15 -13
-16 -12 -3 4 7 9 9 17 4 17 -13 0 -45 -35 -38 -42 3 -3 -3 -11 -12 -19 -16
-13 -17 -12 -4 4 20 25 -2 21 -25 -5 -10 -12 -13 -18 -6 -14 18 10 15 1 -5
-15 -11 -10 -14 -10 -9 -1 4 6 3 12 -2 12 -11 0 -48 -40 -44 -47 2 -3 0 -8 -4
-11 -4 -4 -4 -1 0 6 4 6 3 12 -2 12 -11 0 -48 -40 -44 -47 2 -3 0 -8 -4 -11
-4 -4 -4 -1 0 6 4 6 5 12 2 12 -3 0 -93 -69 -198 -152 -285 -226 -306 -241
-340 -245 -50 -5 -133 -48 -154 -78 -11 -15 -48 -55 -83 -89 -45 -44 -62 -67
-59 -81 4 -16 7 -13 20 16 12 28 25 40 55 49 21 7 58 28 83 47 52 40 70 39 90
-4 15 -31 15 -31 116 -38 162 -11 174 -3 174 112 0 75 -2 83 -15 69 -8 -8 -25
-18 -38 -22 -12 -3 -38 -17 -57 -31 l-35 -25 35 32 c113 103 298 264 540 470
151 129 275 241 275 249 0 36 -42 21 -123 -44z m-22 -39 c0 -2 -8 -10 -17 -17
-16 -13 -17 -12 -4 4 13 16 21 21 21 13z m-790 -599 c0 -2 -10 -12 -22 -23
l-23 -19 19 23 c18 21 26 27 26 19z"/>
<path d="M2385 1862 l-30 -28 31 -20 31 -21 12 33 c7 19 18 34 24 34 7 0 3 7
-7 15 -26 19 -26 19 -61 -13z"/>
<path d="M2480 1839 c0 -39 72 -173 98 -183 7 -3 23 -1 35 6 12 7 30 11 39 10
36 -6 45 52 21 146 -5 20 -2 22 31 22 52 0 99 -22 125 -59 14 -19 31 -31 45
-31 13 0 63 -20 112 -45 93 -48 124 -54 144 -30 14 16 17 14 -57 34 -23 6 -82
32 -130 57 -48 25 -105 54 -125 65 -32 16 -62 20 -188 22 -133 2 -150 0 -150
-14z"/>
<path d="M3738 1833 c-27 -31 -79 -154 -125 -292 -45 -138 -113 -392 -113
-424 0 -10 14 -32 30 -49 34 -33 59 -34 125 -3 36 18 196 165 178 165 -6 0
-18 -6 -25 -12 -30 -29 -52 -43 -44 -29 6 9 5 12 -5 9 -8 -3 -13 -11 -11 -17
1 -7 -2 -10 -7 -6 -6 3 -44 -18 -85 -46 -86 -60 -108 -60 -100 -2 15 107 144
500 199 607 25 49 44 95 41 102 -7 20 -40 17 -58 -3z m-59 -215 c-12 -35 -23
-69 -25 -76 -2 -7 -9 -10 -14 -7 -7 4 -8 11 -1 18 5 7 12 30 17 51 5 31 30 76
41 76 1 0 -7 -28 -18 -62z m-35 -117 c-3 -9 -9 -26 -11 -38 -3 -13 -12 -23
-20 -23 -12 0 -13 -3 -4 -14 8 -10 9 -16 1 -21 -5 -3 -10 -15 -10 -26 0 -10
-5 -19 -11 -19 -8 0 -8 -5 1 -15 12 -14 7 -20 -14 -16 -5 1 -4 -4 3 -13 6 -8
8 -17 3 -20 -7 -4 -21 -55 -38 -145 -4 -17 -8 -21 -16 -13 -7 7 -7 25 1 59 6
26 13 57 15 69 8 53 60 203 69 197 5 -3 6 3 2 16 -4 12 -2 21 4 21 6 0 8 7 5
15 -5 11 -2 13 10 9 11 -4 15 -12 10 -23z m-127 -393 c-3 -8 -6 -5 -6 6 -1 11
2 17 5 13 3 -3 4 -12 1 -19z"/>
<path d="M4128 1833 c-40 -47 -93 -180 -161 -408 -89 -293 -92 -332 -32 -371
22 -15 32 -15 67 -5 40 12 138 78 138 93 0 4 25 26 55 49 30 24 53 45 50 47
-4 4 -47 -17 -55 -27 -13 -15 -43 -35 -36 -23 13 22 -10 13 -55 -21 -126 -96
-165 -106 -154 -40 24 141 143 503 206 625 23 42 38 82 34 88 -10 16 -40 12
-57 -7z m-62 -218 c-9 -21 -16 -46 -16 -56 0 -10 -4 -20 -9 -23 -16 -10 5 101
23 120 18 19 18 -1 2 -41z m-41 -140 c-9 -19 -20 -33 -25 -30 -6 3 -10 2 -10
-4 0 -5 5 -13 11 -17 8 -4 8 -9 0 -17 -6 -6 -11 -19 -11 -29 0 -10 -5 -18 -11
-18 -8 0 -8 -5 1 -15 10 -12 10 -15 -3 -15 -9 0 -19 -5 -23 -12 -4 -7 -3 -8 4
-4 15 9 15 0 -3 -60 -8 -27 -17 -65 -20 -84 -8 -43 -11 -47 -20 -21 -3 11 -1
39 6 63 7 24 13 51 14 60 1 9 19 73 40 142 32 104 40 122 51 111 11 -11 11
-19 -1 -50z m-118 -367 c-3 -8 -6 -5 -6 6 -1 11 2 17 5 13 3 -3 4 -12 1 -19z"/>
<path d="M2330 1795 c-13 -16 -48 -104 -116 -295 -25 -69 -49 -129 -55 -134
-5 -6 -9 -19 -9 -30 0 -18 -2 -19 -11 -6 -7 11 -9 7 -8 -20 4 -55 -11 -130
-27 -130 -19 0 -26 35 -20 95 3 28 8 100 12 161 l7 112 -27 17 c-19 13 -30 15
-37 8 -8 -8 -7 -13 0 -17 7 -5 1 -23 -19 -51 -38 -56 -95 -116 -87 -92 13 36
-4 15 -33 -43 -17 -33 -32 -60 -35 -60 -6 0 27 91 66 184 32 76 32 79 14 92
-16 12 -21 12 -36 -2 -23 -21 -60 -120 -52 -141 4 -11 3 -14 -5 -9 -8 4 -16
-3 -22 -19 -11 -29 -116 -170 -149 -199 -12 -11 -24 -16 -28 -12 -10 10 16
151 39 212 21 56 19 84 -6 84 -22 0 -52 -65 -70 -153 -21 -103 -20 -120 10
-156 40 -48 66 -42 113 27 46 67 107 135 97 109 -3 -10 -6 -24 -6 -30 0 -7 -5
-6 -11 3 -8 11 -9 7 -4 -16 4 -23 2 -33 -9 -37 -23 -9 -20 -31 10 -66 26 -31
44 -33 44 -6 0 34 155 318 183 337 12 7 37 -35 36 -61 0 -12 -2 -12 -8 4 -7
17 -9 16 -14 -10 -4 -17 -10 -73 -13 -125 -7 -106 6 -151 49 -171 12 -5 30
-23 39 -40 21 -35 56 -43 37 -7 -7 13 -9 45 -6 82 5 59 4 60 -8 26 -17 -45
-18 -32 -3 28 9 37 13 42 19 26 6 -15 8 -16 8 -2 1 13 17 17 89 22 48 4 106 9
129 12 24 3 44 1 48 -6 9 -15 25 -12 25 5 0 27 -47 36 -161 29 -79 -5 -109 -4
-109 4 0 7 3 12 8 12 4 0 30 21 57 47 28 25 95 87 150 137 111 101 126 117
121 131 -7 23 -34 12 -82 -32 -28 -27 -42 -41 -31 -33 12 9 18 10 16 3 -4 -13
-207 -203 -216 -203 -3 0 0 7 7 15 7 9 14 28 15 43 3 32 82 227 120 294 26 46
26 47 6 57 -25 14 -26 14 -41 -4z m-106 -359 c-3 -14 -10 -26 -14 -26 -5 0 -3
13 3 30 13 35 21 33 11 -4z m-156 -83 c-12 -98 -18 -109 -13 -25 3 63 9 92 19
92 1 0 -1 -30 -6 -67z m-431 -110 c-3 -10 -5 -2 -5 17 0 19 2 27 5 18 2 -10 2
-26 0 -35z"/>
<path d="M3120 1787 c0 -8 12 -19 26 -26 25 -11 26 -15 22 -69 -7 -68 -55
-216 -107 -328 -45 -95 -114 -177 -145 -172 -51 7 -68 128 -41 279 19 104 17
129 -14 129 -14 0 -20 -9 -25 -37 -3 -21 -8 -48 -10 -60 -2 -13 0 -23 4 -23 5
0 10 10 12 23 3 12 4 -40 4 -115 -1 -112 -3 -133 -13 -115 -7 12 -13 49 -14
82 l-3 60 -3 -55 c-7 -102 57 -200 130 -200 62 0 133 103 199 285 67 185 83
298 48 340 -16 19 -70 20 -70 2z"/>
<path d="M2219 1763 c-13 -16 -12 -17 4 -4 16 13 21 21 13 21 -2 0 -10 -8 -17
-17z"/>
<path d="M2722 1723 c-16 -32 -41 -92 -57 -133 -15 -41 -39 -104 -52 -140 -14
-36 -27 -72 -29 -80 -2 -8 -13 -46 -23 -85 -25 -89 -26 -128 -3 -148 39 -36
55 -23 109 88 55 111 57 133 3 39 -32 -58 -54 -70 -25 -15 8 17 13 31 10 31
-2 0 -14 -18 -25 -41 -82 -159 34 228 122 409 51 105 54 132 18 132 -14 0 -28
-16 -48 -57z m-38 -162 c-19 -51 -32 -96 -29 -102 4 -5 1 -9 -5 -9 -7 0 -10
-7 -6 -15 3 -8 1 -15 -4 -15 -5 0 -8 -13 -8 -29 1 -16 -9 -45 -22 -66 -12 -20
-23 -54 -24 -75 0 -21 -5 -36 -10 -33 -5 4 -7 -1 -3 -9 3 -9 -1 -24 -8 -35
-20 -25 -19 -6 5 85 34 136 135 410 146 399 2 -2 -12 -45 -32 -96z"/>
<path d="M1721 1654 c-36 -55 -37 -60 -15 -68 23 -9 30 -1 50 50 12 32 14 48
6 56 -8 8 -19 -3 -41 -38z"/>
<path d="M3255 1690 c-19 -5 -6 -6 35 -3 36 3 67 7 69 9 8 7 -73 2 -104 -6z"/>
<path d="M2106 1672 c-3 -5 20 -20 50 -35 62 -31 72 -20 17 18 -39 26 -58 31
-67 17z"/>
<path d="M3296 1528 c-66 -69 -109 -154 -114 -228 -7 -90 28 -140 97 -140 34
0 89 44 143 114 26 33 27 37 7 19 -37 -33 -58 -29 -28 5 15 17 11 15 -14 -7
-38 -36 -50 -54 -19 -30 15 13 16 12 3 -3 -7 -10 -18 -15 -23 -12 -5 3 -19 -3
-31 -14 -65 -59 -92 -48 -85 35 8 86 75 208 147 269 26 21 35 24 41 14 16 -25
-54 -129 -105 -158 -11 -6 -17 -13 -13 -17 12 -13 68 26 103 72 30 39 35 54
33 88 -3 40 -3 40 -47 43 -41 3 -46 0 -95 -50z"/>
<path d="M1795 1561 c-17 -3 -30 -13 -30 -21 0 -15 63 -42 78 -33 14 8 -4 23
-29 23 -14 0 -22 4 -19 10 3 6 19 10 35 10 16 0 32 5 35 10 7 11 -22 11 -70 1z"/>
<path d="M2148 1543 c6 -2 18 -2 25 0 6 3 1 5 -13 5 -14 0 -19 -2 -12 -5z"/>
<path d="M2264 1448 l-19 -23 23 19 c21 18 27 26 19 26 -2 0 -12 -10 -23 -22z"/>
</g>
</svg>
